<svg width="18" height="23" viewBox="0 0 18 23" fill="none" xmlns="http://www.w3.org/2000/svg">
<path d="M17.6666 22.8334H15.4999V20.6667C15.4999 19.8048 15.1575 18.9781 14.548 18.3686C13.9385 17.7591 13.1119 17.4167 12.2499 17.4167H5.74992C4.88796 17.4167 4.06131 17.7591 3.45182 18.3686C2.84233 18.9781 2.49992 19.8048 2.49992 20.6667V22.8334H0.333252V20.6667C0.333252 19.2301 0.903935 17.8524 1.91976 16.8365C2.93558 15.8207 4.31333 15.25 5.74992 15.25H12.2499C13.6865 15.25 15.0643 15.8207 16.0801 16.8365C17.0959 17.8524 17.6666 19.2301 17.6666 20.6667V22.8334ZM8.99992 13.0834C8.14633 13.0834 7.30109 12.9152 6.51248 12.5886C5.72386 12.2619 5.0073 11.7831 4.40372 11.1796C3.80014 10.576 3.32136 9.85943 2.9947 9.07082C2.66805 8.2822 2.49992 7.43697 2.49992 6.58337C2.49992 5.72978 2.66805 4.88455 2.9947 4.09593C3.32136 3.30732 3.80014 2.59076 4.40372 1.98718C5.0073 1.3836 5.72386 0.904813 6.51248 0.578157C7.30109 0.251501 8.14633 0.083374 8.99992 0.083374C10.7238 0.083374 12.3771 0.768193 13.5961 1.98718C14.8151 3.20617 15.4999 4.85947 15.4999 6.58337C15.4999 8.30728 14.8151 9.96058 13.5961 11.1796C12.3771 12.3986 10.7238 13.0834 8.99992 13.0834ZM8.99992 10.9167C10.1492 10.9167 11.2514 10.4602 12.064 9.6475C12.8767 8.83485 13.3333 7.73265 13.3333 6.58337C13.3333 5.4341 12.8767 4.3319 12.064 3.51924C11.2514 2.70659 10.1492 2.25004 8.99992 2.25004C7.85065 2.25004 6.74845 2.70659 5.93579 3.51924C5.12313 4.3319 4.66658 5.4341 4.66658 6.58337C4.66658 7.73265 5.12313 8.83485 5.93579 9.6475C6.74845 10.4602 7.85065 10.9167 8.99992 10.9167Z" fill="white" style="fill:white;fill-opacity:1;"/>
</svg>
